# https://github.com/mikedh/trimesh
v 1.63710459 -39.94956167 0.00000000
v 1.62636240 -40.60581167 0.00000000
v 0.93104990 -41.35581167 0.00000000
v 0.24647959 -41.44956167 0.00000000
v -10.86289541 -41.44956167 0.00000000
v -11.58555166 -41.35581167 0.00000000
v -12.58555166 -40.60581167 0.00000000
v -12.86289541 -39.94956167 0.00000000
v -16.45664541 -23.54331167 0.00000000
v -44.15977041 -23.54331167 0.00000000
v -47.75352041 -39.94956167 0.00000000
v -48.03770010 -40.60581167 0.00000000
v -49.09238760 -41.35581167 0.00000000
v -49.86289541 -41.44956167 0.00000000
v -60.86289541 -41.44956167 0.00000000
v -61.42148916 -41.32456167 0.00000000
v -61.90977041 -40.94956167 0.00000000
v -62.22227041 -40.44956167 0.00000000
v -62.25352041 -39.94956167 0.00000000
v -43.05039541 46.45668833 0.00000000
v -42.77891103 47.11293833 0.00000000
v -41.77891103 47.86293833 0.00000000
v -41.05039541 47.95668833 0.00000000
v -19.55039541 47.95668833 0.00000000
v -18.79258291 47.86293833 0.00000000
v -17.79258291 47.11293833 0.00000000
v -17.55039541 46.45668833 0.00000000
v 1.63710459 -39.94956167 0.00000000
v -22.05039541 -11.44956167 0.00000000
v -20.69883291 -11.36362417 0.00000000
v -20.01914541 -11.10581167 0.00000000
v -19.74961416 -10.66049917 0.00000000
v -19.65977041 -10.04331167 0.00000000
v -19.73008291 -9.34799917 0.00000000
v -19.75352041 -8.85581167 0.00000000
v -28.95664541 33.05043833 0.00000000
v -29.12852041 33.51918833 0.00000000
v -29.45664541 33.73793833 0.00000000
v -29.85898916 33.84731333 0.00000000
v -30.25352041 33.95668833 0.00000000
v -30.68320791 33.92934458 0.00000000
v -31.15977041 33.84731333 0.00000000
v -31.55820791 33.60121958 0.00000000
v -31.75352041 33.05043833 0.00000000
v -40.86289541 -8.85581167 0.00000000
v -40.98984853 -9.61948355 0.00000000
v -40.83359853 -10.66635855 0.00000000
v -40.55039541 -10.94956167 0.00000000
v -39.80039541 -11.32456167 0.00000000
v -38.55039541 -11.44956167 0.00000000
v -22.05039541 -11.44956167 0.00000000
v 65.04335459 -40.24643667 0.00000000
v 64.93690928 -40.77280386 0.00000000
v 64.08534678 -41.37436636 0.00000000
v 63.34022959 -41.44956167 0.00000000
v 13.93397959 -41.44956167 0.00000000
v 13.16444834 -41.27378042 0.00000000
v 12.63710459 -40.74643667 0.00000000
v 12.34413584 -39.94565542 0.00000000
v 12.24647959 -38.94956167 0.00000000
v 12.24647959 -28.74643667 0.00000000
v 12.35194834 -27.96030386 0.00000000
v 13.19569834 -27.06186636 0.00000000
v 13.93397959 -26.94956167 0.00000000
v 34.93397959 -26.94956167 0.00000000
v 35.76796397 -26.91245230 0.00000000
v 36.72108897 -26.61557730 0.00000000
v 36.84022959 -26.35581167 0.00000000
v 36.84022959 28.84731333 0.00000000
v 36.31093272 29.07582895 0.00000000
v 35.35780772 29.07582895 0.00000000
v 34.93397959 28.84731333 0.00000000
v 32.96522959 26.97621958 0.00000000
v 28.84022959 22.55043833 0.00000000
v 27.04140147 20.75942270 0.00000000
v 24.04140147 18.71254770 0.00000000
v 22.84022959 18.45668833 0.00000000
v 13.54335459 18.45668833 0.00000000
v 13.19472178 18.56215708 0.00000000
v 12.79628428 19.40590708 0.00000000
v 12.74647959 20.14418833 0.00000000
v 12.74647959 28.34731333 0.00000000
v 12.89003428 29.03090708 0.00000000
v 14.03847178 30.28090708 0.00000000
v 15.04335459 30.84731333 0.00000000
v 17.78944834 32.25356333 0.00000000
v 19.24647959 33.25356333 0.00000000
v 34.93397959 47.64418833 0.00000000
v 35.76210459 48.01918833 0.00000000
v 36.84022959 48.14418833 0.00000000
v 48.54335459 48.14418833 0.00000000
v 49.48085459 48.00746958 0.00000000
v 50.29335459 47.59731333 0.00000000
v 50.85585459 46.98793833 0.00000000
v 51.04335459 46.25356333 0.00000000
v 51.04335459 -25.24643667 0.00000000
v 51.19276865 -26.10288198 0.00000000
v 52.38808115 -26.95444448 0.00000000
v 53.43397959 -26.94956167 0.00000000
v 63.34022959 -26.94956167 0.00000000
v 64.08534678 -27.03061636 0.00000000
v 64.93690928 -27.67905386 0.00000000
v 65.04335459 -28.24643667 0.00000000
v 65.04335459 -40.24643667 0.00000000
f 19 46 45
f 40 39 38
f 35 34 33
f 47 46 19
f 19 18 17
f 17 16 15
f 15 14 13
f 13 12 11
f 9 8 7
f 7 6 5
f 5 4 3
f 3 2 28
f 28 27 26
f 26 25 24
f 24 23 22
f 22 21 20
f 20 19 45
f 48 47 19
f 19 17 15
f 15 13 11
f 9 7 5
f 5 3 28
f 28 26 24
f 24 22 20
f 20 45 44
f 49 48 19
f 19 15 11
f 9 5 28
f 20 44 43
f 50 49 19
f 19 11 10
f 9 28 24
f 24 20 43
f 50 19 10
f 24 43 42
f 51 50 10
f 24 42 41
f 30 51 10
f 24 41 40
f 31 30 10
f 24 40 38
f 31 10 9
f 24 38 37
f 32 31 9
f 24 37 36
f 33 32 9
f 9 24 36
f 35 33 9
f 9 36 35
f 45 46 19
f 38 39 40
f 33 34 35
f 19 46 47
f 17 18 19
f 15 16 17
f 13 14 15
f 11 12 13
f 7 8 9
f 5 6 7
f 3 4 5
f 28 2 3
f 26 27 28
f 24 25 26
f 22 23 24
f 20 21 22
f 45 19 20
f 19 47 48
f 15 17 19
f 11 13 15
f 5 7 9
f 28 3 5
f 24 26 28
f 20 22 24
f 44 45 20
f 19 48 49
f 11 15 19
f 28 5 9
f 43 44 20
f 19 49 50
f 10 11 19
f 24 28 9
f 43 20 24
f 10 19 50
f 42 43 24
f 10 50 51
f 41 42 24
f 10 51 30
f 40 41 24
f 10 30 31
f 38 40 24
f 9 10 31
f 37 38 24
f 9 31 32
f 36 37 24
f 9 32 33
f 36 24 9
f 9 33 35
f 35 36 9
f 53 104 103
f 103 102 101
f 101 100 99
f 96 95 94
f 94 93 92
f 92 91 90
f 90 89 88
f 86 85 84
f 84 83 82
f 82 81 80
f 80 79 78
f 78 77 76
f 76 75 74
f 65 64 63
f 63 62 61
f 61 60 59
f 59 58 57
f 57 56 55
f 55 54 53
f 53 103 101
f 101 99 98
f 96 94 92
f 92 90 88
f 86 84 82
f 82 80 78
f 78 76 74
f 65 63 61
f 61 59 57
f 57 55 53
f 53 101 98
f 96 92 88
f 87 86 82
f 82 78 74
f 66 65 61
f 61 57 53
f 53 98 97
f 97 96 88
f 87 82 74
f 66 61 53
f 88 87 74
f 67 66 53
f 88 74 73
f 68 67 53
f 88 73 72
f 68 53 97
f 88 72 71
f 69 68 97
f 88 71 70
f 69 97 88
f 88 70 69
f 103 104 53
f 101 102 103
f 99 100 101
f 94 95 96
f 92 93 94
f 90 91 92
f 88 89 90
f 84 85 86
f 82 83 84
f 80 81 82
f 78 79 80
f 76 77 78
f 74 75 76
f 63 64 65
f 61 62 63
f 59 60 61
f 57 58 59
f 55 56 57
f 53 54 55
f 101 103 53
f 98 99 101
f 92 94 96
f 88 90 92
f 82 84 86
f 78 80 82
f 74 76 78
f 61 63 65
f 57 59 61
f 53 55 57
f 98 101 53
f 88 92 96
f 82 86 87
f 74 78 82
f 61 65 66
f 53 57 61
f 97 98 53
f 88 96 97
f 74 82 87
f 53 61 66
f 74 87 88
f 53 66 67
f 73 74 88
f 53 67 68
f 72 73 88
f 97 53 68
f 71 72 88
f 97 68 69
f 70 71 88
f 88 97 69
f 69 70 88

